<?xml version="1.0" encoding="UTF-8"?>
<svg xmlns="http://www.w3.org/2000/svg" width="1200" height="1400" viewBox="0 0 1200 1400">
  <defs>
    <filter id="paper">
      <feTurbulence type="fractalNoise" baseFrequency="0.8" numOctaves="1" stitchTiles="stitch" />
      <feColorMatrix type="saturate" values="0.05"/>
      <feComponentTransfer>
        <feFuncA type="table" tableValues="0 0.08"/>
      </feComponentTransfer>
    </filter>
  </defs>

  <!-- Background -->
  <rect width="100%" height="100%" fill="#f9f5e6"/>
  
  <!-- Hex base -->
  <polygon points="1067.7,430.0 1067.7,970.0 600.0,1240.0 132.3,970.0 132.3,430.0 600.0,160.0" fill="#f3efe0" stroke="#0f0f0f" stroke-width="16" />
  
  <!-- Subtle paper grain clipped to hex -->
  <clipPath id="hex">
    <polygon points="1067.7,430.0 1067.7,970.0 600.0,1240.0 132.3,970.0 132.3,430.0 600.0,160.0"/>
  </clipPath>
  <g clip-path="url(#hex)" filter="url(#paper)">
    <rect x="0" y="0" width="100%" height="100%" fill="#000000"/>
  </g>

  <!-- Wood rings -->
  <g clip-path="url(#hex)">
    <path d="M 700.0,700.0 L 708.4,711.4 L 713.8,724.2 L 715.0,737.4 L 711.3,749.6 L 703.1,759.5 L 691.4,766.4 L 677.7,770.0 L 663.9,770.9 L 651.2,770.4 L 640.5,770.1 L 631.8,771.4 L 624.4,775.2 L 617.4,781.8 L 609.5,790.6 L 600.0,800.0 L 588.6,808.4 L 575.8,813.8 L 562.6,815.0 L 550.4,811.3 L 540.5,803.1 L 533.6,791.4 L 530.0,777.7 L 529.1,763.9 L 529.6,751.2 L 529.9,740.5 L 528.6,731.8 L 524.8,724.4 L 518.2,717.4 L 509.4,709.5 L 500.0,700.0 L 491.6,688.6 L 486.2,675.8 L 485.0,662.6 L 488.7,650.4 L 496.9,640.5 L 508.6,633.6 L 522.3,630.0 L 536.1,629.1 L 548.8,629.6 L 559.5,629.9 L 568.2,628.6 L 575.6,624.8 L 582.6,618.2 L 590.5,609.4 L 600.0,600.0 L 611.4,591.6 L 624.2,586.2 L 637.4,585.0 L 649.6,588.7 L 659.5,596.9 L 666.4,608.6 L 670.0,622.3 L 670.9,636.1 L 670.4,648.8 L 670.1,659.5 L 671.4,668.2 L 675.2,675.6 L 681.8,682.6 L 690.6,690.5 L 700.0,700.0 Z" stroke="#3d2c22" stroke-width="2" fill="none" opacity="0.28"/>
<path d="M 754.3,700.0 L 758.5,716.7 L 755.8,733.1 L 746.4,747.6 L 732.4,758.9 L 716.5,767.3 L 701.7,773.9 L 689.6,780.7 L 680.8,789.7 L 674.1,802.0 L 667.6,817.0 L 659.2,832.9 L 647.7,846.8 L 633.1,855.9 L 616.6,858.4 L 600.0,853.9 L 584.9,844.1 L 572.0,831.6 L 561.2,819.5 L 550.9,810.2 L 539.6,804.6 L 525.9,802.0 L 509.6,800.4 L 491.9,797.3 L 475.1,790.7 L 462.0,779.7 L 454.5,764.8 L 453.6,747.6 L 458.3,730.1 L 466.2,714.1 L 474.3,700.0 L 480.1,687.4 L 481.9,674.9 L 480.1,661.0 L 476.6,645.0 L 474.0,627.3 L 475.1,609.3 L 481.5,593.3 L 493.4,581.7 L 509.5,575.5 L 527.6,574.5 L 545.3,577.1 L 561.2,580.5 L 574.9,582.0 L 587.4,579.9 L 600.0,573.9 L 614.1,565.6 L 630.2,557.7 L 647.7,553.2 L 664.8,554.4 L 679.6,562.1 L 690.5,575.5 L 697.0,592.3 L 700.0,610.0 L 701.7,626.1 L 704.4,639.7 L 710.3,650.9 L 719.9,661.0 L 732.2,671.9 L 744.7,684.8 L 754.3,700.0 Z" stroke="#3d2c22" stroke-width="3" fill="none" opacity="0.25"/>
<path d="M 798.0,700.0 L 795.1,720.5 L 787.5,739.8 L 776.0,757.2 L 762.2,772.2 L 747.7,785.3 L 733.6,797.1 L 720.6,808.6 L 708.7,820.8 L 697.4,834.1 L 685.7,848.5 L 672.7,863.2 L 657.5,877.0 L 640.0,888.2 L 620.6,895.6 L 600.0,898.0 L 579.5,895.1 L 560.2,887.5 L 542.8,876.0 L 527.8,862.2 L 514.7,847.7 L 502.9,833.6 L 491.4,820.6 L 479.2,808.7 L 465.9,797.4 L 451.5,785.7 L 436.8,772.7 L 423.0,757.5 L 411.8,740.0 L 404.4,720.6 L 402.0,700.0 L 404.9,679.5 L 412.5,660.2 L 424.0,642.8 L 437.8,627.8 L 452.3,614.7 L 466.4,602.9 L 479.4,591.4 L 491.3,579.2 L 502.6,565.9 L 514.3,551.5 L 527.3,536.8 L 542.5,523.0 L 560.0,511.8 L 579.4,504.4 L 600.0,502.0 L 620.5,504.9 L 639.8,512.5 L 657.2,524.0 L 672.2,537.8 L 685.3,552.3 L 697.1,566.4 L 708.6,579.4 L 720.8,591.3 L 734.1,602.6 L 748.5,614.3 L 763.2,627.3 L 777.0,642.5 L 788.2,660.0 L 795.6,679.4 L 798.0,700.0 Z" stroke="#3d2c22" stroke-width="2" fill="none" opacity="0.22000000000000003"/>
<path d="M 830.8,700.0 L 822.2,723.4 L 810.5,744.7 L 798.0,764.3 L 786.7,783.1 L 777.3,802.4 L 769.2,823.0 L 760.9,844.9 L 750.4,867.1 L 736.2,887.5 L 717.8,904.1 L 695.7,914.9 L 671.3,919.5 L 646.5,918.6 L 622.5,914.0 L 600.0,908.2 L 578.6,903.3 L 557.4,900.3 L 535.4,899.0 L 511.9,897.8 L 487.6,894.7 L 463.8,887.5 L 442.3,875.1 L 425.2,857.4 L 413.3,835.7 L 406.5,811.7 L 403.4,787.5 L 402.0,764.3 L 400.1,742.5 L 396.4,721.4 L 390.8,700.0 L 384.6,677.4 L 380.1,653.3 L 379.5,628.4 L 384.7,604.2 L 396.3,582.4 L 413.3,564.3 L 433.9,550.5 L 456.0,540.1 L 477.6,531.6 L 497.8,523.0 L 516.7,513.0 L 535.4,501.0 L 555.0,488.2 L 576.5,476.4 L 600.0,468.2 L 624.6,465.7 L 648.9,469.9 L 671.3,480.5 L 690.9,495.9 L 707.6,513.6 L 722.4,531.6 L 736.8,548.1 L 752.2,563.0 L 769.2,577.0 L 787.5,591.7 L 805.4,608.6 L 820.5,628.4 L 830.5,651.0 L 834.0,675.4 L 830.8,700.0 Z" stroke="#3d2c22" stroke-width="3" fill="none" opacity="0.19000000000000003"/>
<path d="M 859.2,700.0 L 852.2,726.5 L 843.6,751.8 L 834.4,776.2 L 824.9,800.1 L 815.0,824.2 L 804.2,848.4 L 791.7,872.6 L 776.5,896.0 L 758.0,917.5 L 736.3,936.0 L 711.4,950.3 L 684.4,959.7 L 656.1,963.9 L 627.7,963.5 L 600.0,959.2 L 573.5,952.2 L 548.2,943.6 L 523.8,934.4 L 499.9,924.9 L 475.8,915.0 L 451.6,904.2 L 427.4,891.7 L 404.0,876.5 L 382.5,858.0 L 364.0,836.3 L 349.7,811.4 L 340.3,784.4 L 336.1,756.1 L 336.5,727.7 L 340.8,700.0 L 347.8,673.5 L 356.4,648.2 L 365.6,623.8 L 375.1,599.9 L 385.0,575.8 L 395.8,551.6 L 408.3,527.4 L 423.5,504.0 L 442.0,482.5 L 463.7,464.0 L 488.6,449.7 L 515.6,440.3 L 543.9,436.1 L 572.3,436.5 L 600.0,440.8 L 626.5,447.8 L 651.8,456.4 L 676.2,465.6 L 700.1,475.1 L 724.2,485.0 L 748.4,495.8 L 772.6,508.3 L 796.0,523.5 L 817.5,542.0 L 836.0,563.7 L 850.3,588.6 L 859.7,615.6 L 863.9,643.9 L 863.5,672.3 L 859.2,700.0 Z" stroke="#3d2c22" stroke-width="2" fill="none" opacity="0.16000000000000003"/>
<path d="M 890.9,700.0 L 886.6,730.1 L 882.4,760.0 L 877.9,790.3 L 872.0,821.1 L 863.2,852.0 L 850.1,881.7 L 831.7,908.6 L 808.3,931.4 L 780.9,949.1 L 751.1,961.8 L 720.4,970.5 L 689.9,976.7 L 659.9,981.9 L 630.2,987.1 L 600.0,992.2 L 568.9,996.1 L 536.8,997.3 L 504.5,994.0 L 473.2,984.8 L 444.3,969.6 L 419.1,949.1 L 397.8,924.6 L 380.0,898.1 L 364.6,871.0 L 350.4,844.1 L 336.3,817.4 L 322.1,790.3 L 308.8,761.9 L 297.7,731.8 L 290.9,700.0 L 289.9,667.4 L 295.5,635.3 L 307.2,604.9 L 323.9,577.1 L 343.6,552.0 L 364.6,529.0 L 385.8,507.1 L 406.8,485.5 L 428.3,463.6 L 451.1,442.1 L 476.4,422.3 L 504.5,406.0 L 535.2,395.0 L 567.5,390.4 L 600.0,392.2 L 631.6,399.4 L 661.6,410.4 L 689.9,423.3 L 717.2,436.7 L 744.3,450.0 L 771.7,463.6 L 799.2,478.7 L 825.9,496.6 L 850.1,518.3 L 870.0,544.1 L 884.4,573.4 L 892.8,604.9 L 895.6,637.2 L 894.4,669.1 L 890.9,700.0 Z" stroke="#3d2c22" stroke-width="3" fill="none" opacity="0.13000000000000003"/>
<path d="M 930.0,700.0 L 929.4,734.6 L 926.7,769.4 L 921.2,804.4 L 912.4,839.1 L 899.4,872.9 L 882.0,904.9 L 860.0,934.1 L 833.9,959.8 L 804.3,981.2 L 772.1,998.1 L 738.4,1010.8 L 703.9,1019.6 L 669.2,1025.4 L 634.6,1028.7 L 600.0,1030.0 L 565.4,1029.4 L 530.6,1026.7 L 495.6,1021.2 L 460.9,1012.4 L 427.1,999.4 L 395.1,982.0 L 365.9,960.0 L 340.2,933.9 L 318.8,904.3 L 301.9,872.1 L 289.2,838.4 L 280.4,803.9 L 274.6,769.2 L 271.3,734.6 L 270.0,700.0 L 270.6,665.4 L 273.3,630.6 L 278.8,595.6 L 287.6,560.9 L 300.6,527.1 L 318.0,495.1 L 340.0,465.9 L 366.1,440.2 L 395.7,418.8 L 427.9,401.9 L 461.6,389.2 L 496.1,380.4 L 530.8,374.6 L 565.4,371.3 L 600.0,370.0 L 634.6,370.6 L 669.4,373.3 L 704.4,378.8 L 739.1,387.6 L 772.9,400.6 L 804.9,418.0 L 834.1,440.0 L 859.8,466.1 L 881.2,495.7 L 898.1,527.9 L 910.8,561.6 L 919.6,596.1 L 925.4,630.8 L 928.7,665.4 L 930.0,700.0 Z" stroke="#3d2c22" stroke-width="2" fill="none" opacity="0.10000000000000003"/>
<path d="M 974.9,700.0 L 976.7,739.6 L 974.5,779.6 L 967.3,819.3 L 954.4,857.8 L 935.6,893.7 L 911.5,926.3 L 883.3,955.1 L 852.4,980.3 L 819.7,1002.4 L 786.1,1022.2 L 751.5,1040.3 L 715.9,1056.6 L 678.7,1070.5 L 640.0,1080.8 L 600.0,1086.2 L 559.5,1085.8 L 519.4,1079.0 L 481.0,1066.2 L 444.9,1048.3 L 411.4,1026.6 L 380.3,1002.4 L 351.0,976.5 L 323.2,949.3 L 296.7,920.4 L 272.0,889.4 L 250.3,855.7 L 232.7,819.3 L 220.6,780.6 L 214.6,740.5 L 214.9,700.0 L 220.8,660.1 L 231.1,621.6 L 244.5,584.5 L 260.1,548.7 L 277.4,513.7 L 296.7,479.6 L 318.5,446.6 L 343.8,415.5 L 373.0,387.6 L 406.1,364.1 L 442.4,346.0 L 481.0,333.8 L 520.7,327.1 L 560.6,324.9 L 600.0,326.2 L 638.9,329.9 L 677.5,335.6 L 715.9,343.4 L 754.0,354.0 L 791.4,368.4 L 827.0,387.6 L 859.6,411.7 L 888.0,440.7 L 911.5,473.7 L 930.2,509.4 L 944.5,546.6 L 955.5,584.5 L 964.0,622.6 L 970.5,661.1 L 974.9,700.0 Z" stroke="#3d2c22" stroke-width="3" fill="none" opacity="0.07000000000000003"/>
  </g>

  <!-- Leaf silhouette -->
  <path d="
M 600 480
C 570 470, 560 440, 580 420
C 540 420, 520 390, 540 360
C 500 360, 490 330, 520 310
C 480 300, 490 270, 520 270
C 560 250, 580 230, 600 230
C 620 230, 640 250, 680 270
C 710 270, 720 300, 680 310
C 710 330, 700 360, 660 360
C 680 390, 660 420, 620 420
C 640 440, 630 470, 600 480
Z
" fill="#0f0f0f" opacity="0.92"/>
  <rect x="590" y="480" width="20" height="120" fill="#0f0f0f" opacity="0.92"/>

  <!-- Title -->
  <text x="600" y="990" font-family="Helvetica, Arial, sans-serif" font-size="148" text-anchor="middle" font-weight="700" letter-spacing="2" fill="#0f0f0f">
    woodcut
  </text>
  <text x="600" y="1060" font-family="Helvetica, Arial, sans-serif" font-size="44" text-anchor="middle" font-weight="500" letter-spacing="6" fill="#3d2c22" opacity="0.8">
    ggplot aesthetics
  </text>

  <!-- Footer badge -->
  <text x="600" y="1185" font-family="Helvetica, Arial, sans-serif" font-size="34" text-anchor="middle" fill="#3d2c22" opacity="0.8">
    est. 2025
  </text>
</svg>
